# AST/ASF file generated using VICON BodyLanguage
# -----------------------------------------------
:version 1.10
:name VICON
:units
  mass 1.0
  length 0.45
  angle deg
:documentation
   .ast/.asf automatically generated from VICON data using
   VICON BodyBuilder and BodyLanguage model FoxedUp or BRILLIANT.MOD
:root
   order TX TY TZ RX RY RZ
   axis XYZ
   position 0 0 0  
   orientation 0 0 0 
:bonedata
  begin
     id 1 
     name lhipjoint
     direction 0.625129 -0.738222 0.253461 
     length 2.5165 
     axis 0 0 0  XYZ
  end
  begin
     id 2 
     name lfemur
     direction 0.34202 -0.939693 0  
     length 7.54288  
     axis 0 0 20  XYZ
    dof rx ry rz
    limits (-160.0 20.0)
           (-70.0 70.0)
           (-60.0 70.0)
  end
  begin
     id 3 
     name ltibia
     direction 0.34202 -0.939693 0   
     length 7.71864   
     axis 0 0 20   XYZ
    dof rx
    limits (-10.0 170.0)
  end
  begin
     id 4 
     name lfoot
     direction 0.0772037 -0.212115 0.97419   
     length 2.18429   
     axis -90 7.62852e-016 20   XYZ
    dof rx rz
    limits (-45.0 90.0)
           (-70.0 20.0)
  end
  begin
     id 5 
     name ltoes
     direction 1.53513e-011 -4.21834e-011 1   
     length 1.09718   
     axis -90 7.62852e-016 20   XYZ
    dof rx
    limits (-90.0 20.0)
  end
  begin
     id 6 
     name rhipjoint
     direction -0.621946 -0.740623 0.254285   
     length 2.50835  
     axis 0 0 0  XYZ 
  end
  begin
     id 7 
     name rfemur
     direction -0.34202 -0.939693 0   
     length 7.43366   
     axis 0 0 -20   XYZ
    dof rx ry rz
    limits (-160.0 20.0)
           (-70.0 70.0)
           (-70.0 60.0)
  end
  begin
     id 8 
     name rtibia
     direction -0.34202 -0.939693 0   
     length 7.77122   
     axis 0 0 -20   XYZ
    dof rx
    limits (-10.0 170.0)
 end
 begin
     id 9 
     name rfoot
     direction -0.082694 -0.2272 0.970331   
     length 2.2293  
     axis -90 -7.62852e-016 -20   XYZ
    dof rx rz
    limits (-45.0 90.0)
           (-20.0 70.0)
  end
  begin
     id 10 
     name rtoes
     direction -1.53565e-011 -4.21695e-011 1   
     length 1.1178   
     axis -90 -7.62852e-016 -20   XYZ
    dof rx
    limits (-90.0 20.0)
  end
  begin
     id 11 
     name lowerback
     direction -0.000695208 0.988391 -0.151929   
     length 1.95077   
     axis 0 0 0   XYZ
    dof rx ry rz
    limits (-20.0 45.0)
           (-30.0 30.0)
           (-30.0 30.0)
  end
  begin
     id 12 
     name upperback
     direction -0.00268925 0.999885 -0.0149203   
     length 1.96246   
     axis 0 0 0   XYZ
    dof rx ry rz
    limits (-20.0 45.0)
           (-30.0 30.0)
           (-30.0 30.0)
  end
  begin
     id 13 
     name thorax
     direction -0.000848408 0.998481 0.0550912   
     length 2.00867   
     axis 0 0 0   XYZ
    dof rx ry rz
    limits (-20.0 45.0)
           (-30.0 30.0)
           (-30.0 30.0)
  end
  begin
     id 14 
     name lowerneck
     direction -0.00577709 0.998999 0.0443608   
     length 1.75762   
     axis 0 0 0   XYZ
    dof rx ry rz
    limits (-20.0 45.0)
           (-30.0 30.0)
           (-30.0 30.0)
  end
  begin
     id 15 
     name upperneck
     direction 0.0320945 0.999136 0.0264105   
     length 1.72601   
     axis 0 0 0   XYZ
    dof rx ry rz
    limits (-20.0 45.0)
           (-30.0 30.0)
           (-30.0 30.0)
  end
  begin
     id 16
     name head
     direction 0.0120552 0.999916 0.00480151  
     length 1.79973  
     axis 0 0 0   XYZ
    dof rx ry rz
    limits (-20.0 45.0)
           (-30.0 30.0)
           (-30.0 30.0)
  end
  begin
     id 17 
     name lclavicle
     direction 0.909 0.371533 -0.188897  
     length 3.47956  
     axis 0 0 0   XYZ
    dof ry rz
    limits (-20.0 10.0)
           (0.0 20.0)
  end
  begin
     id 18 
     name lhumerus
     direction 1 -4.48963e-011 -6.48352e-028   
     length 5.52302   
     axis 180 -30 -90   XYZ
    dof rx ry rz
    limits (-60.0 90.0)
           (-90.0 90.0)
           (-90.0 90.0)
  end
  begin
     id 19
     name lradius
     direction 1 -4.48968e-011 -4.78536e-027   
     length 3.58675   
     axis 180 -30 -90   XYZ
    dof rx
    limits (-10.0 170.0)
  end
  begin
     id 20
     name lwrist
     direction 1 -4.48942e-011 -9.9435e-027   
     length 1.79337   
     axis 8.54312e-015 90 90   XYZ
    dof ry
    limits (-180.0 0.0)
 end
  begin
     id 21 
     name lhand
     direction 1 -4.4904e-011 -1.9887e-026   
     length 0.536412   
     axis 1.26896e-014 90 90   XYZ
    dof rx rz
    limits (-90.0 90.0)
           (-45.0 45.0)
  end
  begin
     id 22 
     name lfingers
     direction 1 -4.48893e-011 -3.9774e-026   
     length 0.432469   
     axis 2.53792e-014 90 90   XYZ
    dof rx
    limits (0.0 90.0)
  end
  begin
     id 23
     name lthumb
     direction 0.707107 -6.34934e-011 0.707107   
     length 0.620942   
     axis -90 45 2.85299e-015   XYZ
    dof rx rz
    limits (-45.0 45.0)
           (-45.0 45.0)
  end
  begin
     id 24 
     name rclavicle
     direction -0.89595 0.416672 -0.153813   
     length 3.44099  
     axis 0 0 0   XYZ 
    dof ry rz
    limits (-10.0 20.0)
           (-20.0 0.0)
  end
  begin
     id 25 
     name rhumerus
     direction -1 -4.48952e-011 5.57804e-028  
     length 5.8478   
     axis 180 30 90   XYZ
    dof rx ry rz
    limits (-90.0 60.0)
           (-90.0 90.0)
           (-90.0 90.0)
  end
  begin
     id 26 
     name rradius
     direction -1 -4.48967e-011 -7.93646e-027   
     length 3.62717   
     axis 180 30 90   XYZ
    dof rx
    limits (-10.0 170.0)
  end
  begin
     id 27 
     name rwrist
     direction -1 -4.49008e-011 -9.9435e-027   
     length 1.81359   
     axis 8.54312e-015 -90 -90   XYZ
    dof ry
    limits (-180.0 0.0)
  end
  begin
     id 28
     name rhand
     direction -1 -4.48812e-011 -1.9887e-026   
     length 0.650516   
     axis 1.26896e-014 -90 -90   XYZ
    dof rx rz
    limits (-90.0 90.0)
           (-45.0 45.0)
  end
  begin
     id 29
     name rfingers
     direction -1 -4.49228e-011 -3.9774e-026   
     length 0.524463   
     axis 2.53792e-014 -90 -90   XYZ
    dof rx
    limits (0.0 90.0)
  end
  begin
     id 30
     name rthumb
     direction -0.707107 -6.34912e-011 0.707107   
     length 0.753027   
     axis -90 -45 -2.85299e-015   XYZ
    dof rx rz
    limits (-45.0 45.0)
           (-45.0 45.0)
  end
:hierarchy
  begin
    root lhipjoint rhipjoint lowerback
    lhipjoint lfemur
    lfemur ltibia
    ltibia lfoot
    lfoot ltoes
    rhipjoint rfemur
    rfemur rtibia
    rtibia rfoot
    rfoot rtoes
    lowerback upperback
    upperback thorax
    thorax lowerneck lclavicle rclavicle
    lowerneck upperneck
    upperneck head
    lclavicle lhumerus
    lhumerus lradius
    lradius lwrist
    lwrist lhand lthumb
    lhand lfingers
    rclavicle rhumerus
    rhumerus rradius
    rradius rwrist
    rwrist rhand rthumb
    rhand rfingers
  end

#!OML:ASF F:\VICON\USERDATA\INSTALL\rory3\rory3.ASF
:FULLY-SPECIFIED
:DEGREES
66
root 0.197569 18.5481 6.17999 7.71589 -2.34326 -8.2408
lowerback 12.6382 1.11513 8.26195
upperback 0.0876738 2.70009 0.176275
thorax -6.645 1.05076 -4.95969
lowerneck -4.48332 -0.647093 -0.592415
upperneck -8.55744 -0.708554 2.29154
head -1.90242 -0.375702 0.818578
rclavicle -2.55438e-014 -1.31198e-014
rhumerus -30.2449 23.3897 -78.3738
rradius 119.138
rwrist -8.87775
rhand -39.1178 32.414
rfingers 7.12502
rthumb -12.1173 2.78492
lclavicle -2.55438e-014 -1.31198e-014
lhumerus -62.4613 -5.93041 91.8362
lradius 108.586
lwrist 25.4275
lhand -36.0846 10.3938
lfingers 7.12502
lthumb -9.19141 40.1735
rfemur 26.7327 8.34127 33.864
rtibia 7.1555
rfoot 34.899 -7.09995
rtoes 11.0759
lfemur -44.8225 -1.31021 -10.2277
ltibia 53.1839
lfoot 3.70282 -6.88179
ltoes -16.1269
67
root 0.19308 18.5819 6.71802 7.75623 -2.06235 -8.30442
lowerback 12.54 1.07666 8.09487
upperback 0.163474 2.61636 0.249229
thorax -6.53035 1.0242 -4.76738
lowerneck -4.85483 -0.692333 -0.590642
upperneck -8.59292 -0.779267 2.10722
head -1.84924 -0.405891 0.758212
rclavicle 2.5842e-015 -1.59028e-015
rhumerus -30.4308 23.6712 -78.6064
rradius 118.59
rwrist -8.69656
rhand -39.3378 32.9482
rfingers 7.12502
rthumb -12.3294 3.33175
lclavicle 2.5842e-015 -1.59028e-015
lhumerus -62.3393 -5.39185 91.4196
lradius 109.119
lwrist 26.621
lhand -35.3269 11.0047
lfingers 7.12502
lthumb -8.4603 40.8152
rfemur 26.3582 8.70714 34.472
rtibia 10.4546
rfoot 33.2288 -5.68986
rtoes 13.2988
lfemur -43.9937 -2.313 -9.67718
ltibia 47.8095
lfoot 4.65907 -6.52442
ltoes -16.277
68
root 0.193509 18.6031 7.25176 7.76088 -1.95095 -8.38449
lowerback 12.8442 1.10139 7.97253
upperback 0.021738 2.67246 0.315304
thorax -6.85521 1.03732 -4.65379
lowerneck -5.1433 -0.719833 -0.594531
upperneck -8.36741 -0.830603 1.90061
head -1.72687 -0.425491 0.690383
rclavicle 9.93923e-017 0
rhumerus -31.1701 23.8408 -78.9246
rradius 117.932
rwrist -8.37102
rhand -39.3462 32.7991
rfingers 7.12502
rthumb -12.3374 3.18315
lclavicle 9.93923e-017 0
lhumerus -62.52 -5.0949 91.1923
lradius 109.659
lwrist 27.7182
lhand -35.3489 11.9598
lfingers 7.12502
lthumb -8.48145 41.7694
rfemur 25.8573 9.2346 35.083
rtibia 14.0222
rfoot 31.6052 -4.32336
rtoes 16.481
lfemur -43.0005 -3.23932 -9.07267
ltibia 42.5876
lfoot 5.66415 -5.78999
ltoes -15.6905
69
root 0.193914 18.6153 7.78917 7.64488 -1.90185 -8.73143
lowerback 13.1813 1.15095 8.14075
upperback 0.0285882 2.80327 0.427213
thorax -7.01868 1.08919 -4.66594
lowerneck -5.5173 -0.723398 -0.578122
upperneck -8.30714 -0.844883 1.73076
head -1.64444 -0.428346 0.631689
rclavicle -4.26393e-014 5.56597e-015
rhumerus -31.9039 23.6462 -79.1911
rradius 116.992
rwrist -8.06259
rhand -38.9525 32.6541
rfingers 7.12502
rthumb -11.9579 3.01561
lclavicle -4.26393e-014 5.56597e-015
lhumerus -62.2019 -4.93015 91.1222
lradius 109.856
lwrist 28.3806
lhand -35.8 12.6683
lfingers 7.12502
lthumb -8.91682 42.4598
rfemur 25.3795 9.82611 35.9772
rtibia 17.8223
rfoot 30.2152 -3.43125
rtoes 19.7663
lfemur -41.8609 -4.08916 -8.19164
ltibia 37.6472
lfoot 6.48789 -4.5585
ltoes -13.3752
70
root 0.194606 18.6183 8.32876 7.57006 -1.57316 -9.18917
lowerback 13.229 1.0523 8.51033
upperback 0.143102 2.73602 0.550741
thorax -6.92161 1.05365 -4.7288
lowerneck -5.816 -0.723508 -0.453841
upperneck -8.49854 -0.857091 1.54737
head -1.65612 -0.434656 0.553209
rclavicle -1.14301e-014 2.22639e-014
rhumerus -32.4808 23.4453 -79.5893
rradius 115.795
rwrist -7.94341
rhand -38.7718 32.8978
rfingers 7.12502
rthumb -11.7836 3.24933
lclavicle -1.14301e-014 2.22639e-014
lhumerus -61.533 -4.71972 91.0331
lradius 109.978
lwrist 29.0963
lhand -35.7392 12.8625
lfingers 7.12502
lthumb -8.85813 42.6566
rfemur 24.7012 10.185 36.9839
rtibia 21.7897
rfoot 28.2109 -3.10496
rtoes 16.9128
lfemur -40.8006 -5.20153 -7.17104
ltibia 33.1677
lfoot 6.76247 -3.14609
ltoes -10.7805
71
root 0.19139 18.6066 8.85683 7.47386 -1.22101 -9.4244
lowerback 13.3594 0.939019 8.63082
upperback 0.163008 2.61766 0.563077
thorax -6.98619 0.98951 -4.76744
lowerneck -5.77228 -0.723045 -0.136783
upperneck -8.68935 -0.877837 1.36403
head -1.72604 -0.452486 0.444716
rclavicle 7.05686e-015 -2.50469e-014
rhumerus -33.4086 23.1718 -80.2436
rradius 114.534
rwrist -8.19727
rhand -38.2741 32.066
rfingers 7.12502
rthumb -11.3037 2.39064
lclavicle 7.05686e-015 -2.50469e-014
lhumerus -61.0233 -4.72112 90.8197
lradius 110.241
lwrist 30.0862
lhand -35.1771 12.5098
lfingers 7.12502
lthumb -8.31567 42.3262
rfemur 23.7855 9.60776 37.3416
rtibia 25.8492
rfoot 25.4787 -2.73103
rtoes 5.17887
lfemur -39.7946 -6.2692 -6.45357
ltibia 29.3933
lfoot 6.56056 -1.51423
ltoes -9.69192
72
root 0.187049 18.5698 9.37475 7.41308 -1.18424 -9.68422
lowerback 13.269 0.974801 8.65827
upperback 0.277873 2.65544 0.598726
thorax -6.80608 1.01981 -4.7449
lowerneck -5.25689 -0.757157 0.0730161
upperneck -9.37444 -0.926481 1.29762
head -2.03655 -0.486548 0.396054
rclavicle -3.21037e-014 -2.94201e-014
rhumerus -34.2236 22.7735 -80.7827
rradius 112.913
rwrist -8.6707
rhand -37.3512 31.2232
rfingers 7.12502
rthumb -10.4134 1.50104
lclavicle -3.21037e-014 -2.94201e-014
lhumerus -60.2124 -4.95676 90.685
lradius 110.433
lwrist 31.0662
lhand -34.7973 12.5978
lfingers 7.12502
lthumb -7.94912 42.4283
rfemur 22.6935 9.28537 37.6306
rtibia 30.0894
rfoot 27.0961 -2.43309
rtoes 12.19
lfemur -38.8515 -6.64949 -6.00983
ltibia 26.5426
lfoot 6.24196 0.121911
ltoes -12.3867
73
root 0.184936 18.5169 9.90463 7.39467 -1.22069 -9.88677
lowerback 12.7562 1.01156 8.6402
upperback 0.544709 2.63559 0.651451
thorax -6.23608 1.04742 -4.6475
lowerneck -4.63882 -0.710554 -0.0619422
upperneck -10.3122 -0.831391 1.52294
head -2.45327 -0.445179 0.499093
rclavicle -2.38542e-014 6.75868e-015
rhumerus -34.8116 22.3813 -81.202
rradius 111.029
rwrist -9.19895
rhand -36.4557 30.4219
rfingers 7.12502
rthumb -9.54951 0.658304
lclavicle -2.38542e-014 6.75868e-015
lhumerus -59.0112 -5.18497 90.5791
lradius 110.445
lwrist 32.1283
lhand -35.1107 13.2676
lfingers 7.12502
lthumb -8.25157 43.0864
rfemur 21.4655 8.96677 37.7255
rtibia 34.5137
rfoot 27.6782 -2.33819
rtoes 12.0477
lfemur -38.0071 -6.45943 -6.00493
ltibia 24.7083
lfoot 5.78681 1.77008
ltoes -13.9752
74
root 0.17804 18.473 10.4401 7.33394 -1.29444 -9.80111
lowerback 12.476 1.04922 8.27823
upperback 0.675954 2.59545 0.618098
thorax -5.95701 1.05473 -4.45876
lowerneck -4.36035 -0.604085 -0.3407
upperneck -10.6693 -0.639829 2.00032
head -2.62295 -0.35372 0.701365
rclavicle 2.38542e-014 -5.56597e-015
rhumerus -35.5308 21.8618 -81.6045
rradius 108.994
rwrist -9.25104
rhand -36.0726 29.4076
rfingers 7.12502
rthumb -9.1799 -0.372546
lclavicle 2.38542e-014 -5.56597e-015
lhumerus -57.7827 -5.49288 90.4299
lradius 110.316
lwrist 33.4501
lhand -35.3641 12.833
lfingers 7.12502
lthumb -8.49617 42.6421
rfemur 20.082 8.68753 37.549
rtibia 39.0602
rfoot 27.9865 -2.71431
rtoes 7.94496
lfemur -37.254 -5.5066 -6.87118
ltibia 23.822
lfoot 5.85968 2.35449
ltoes -18.2403
75
root 0.169794 18.4283 10.9641 7.20874 -0.998455 -9.48178
lowerback 12.6361 0.956718 7.84461
upperback 0.611649 2.42088 0.466267
thorax -6.14932 0.969043 -4.35596
lowerneck -4.16045 -0.543926 -0.394133
upperneck -10.7281 -0.526233 2.37737
head -2.68009 -0.306057 0.832042
rclavicle -5.76476e-015 -1.27222e-014
rhumerus -36.3889 21.1768 -82.0564
rradius 106.69
rwrist -8.93532
rhand -36.0635 28.9346
rfingers 7.12502
rthumb -9.17112 -0.845946
lclavicle -5.76476e-015 -1.27222e-014
lhumerus -56.6284 -6.03532 90.2878
lradius 110.136
lwrist 34.6903
lhand -35.5057 12.1428
lfingers 7.12502
lthumb -8.63285 41.9463
rfemur 18.4843 8.0683 37.1915
rtibia 43.7227
rfoot 28.4678 -3.76748
rtoes 6.36061
lfemur -36.6342 -4.21584 -8.43549
ltibia 23.6124
lfoot 4.64974 1.87942
ltoes -23.0702
76
root 0.163398 18.3553 11.4855 6.91789 -0.428257 -9.15403
lowerback 12.8943 0.769401 7.55181
upperback 0.568798 2.14468 0.288147
thorax -6.37906 0.829006 -4.34477
lowerneck -3.5662 -0.561357 -0.383653
upperneck -11.0686 -0.514423 2.70096
head -2.90291 -0.315348 0.941734
rclavicle -8.94531e-015 7.95139e-016
rhumerus -37.374 20.3141 -82.5835
rradius 104.051
rwrist -8.84647
rhand -36.166 29.5631
rfingers 7.12502
rthumb -9.26998 -0.213086
lclavicle -8.94531e-015 7.95139e-016
lhumerus -55.475 -6.76629 90.1141
lradius 110.157
lwrist 36.0271
lhand -35.8679 13.0631
lfingers 7.12502
lthumb -8.98231 42.8519
rfemur 16.8335 7.02005 36.7513
rtibia 48.5756
rfoot 29.5255 -4.7284
rtoes 7.9549
lfemur -35.9217 -2.97247 -10.0518
ltibia 23.8074
lfoot 5.04329 1.92007
ltoes -22.9455
